<?xml version="1.0" encoding="utf-8"?>
<svg viewBox="0 0 512 512" style="enable-background:new 0 0 512 512;" xmlns="http://www.w3.org/2000/svg">
  <defs>
    <style type="text/css">
	.st0{fill:#2BFEC5;}
	.st1{fill:#9140A1;}
</style>
  </defs>
  <g>
    <path class="st0" d="M502,340.4h-0.3v-58.2c0-1.8-0.4-2.9-0.7-3.7l-36.2-95.9c-1.5-3.9-5.2-6.5-9.4-6.5h-59.2v-62.7 c0-15-12.2-27.2-27.2-27.2H192.8c3.2,6.3,5.8,13,7.7,20H369c4,0,7.2,3.3,7.2,7.2v227H90.3V231.2c-6.9-1.1-13.6-2.9-20-5.2v114.4H70 c-5.5,0-10,4.5-10,10v61.5c0,5.5,4.5,10,10,10h46.4c-0.7,3.5-1.1,7.1-1.1,10.8c0,28.7,23.3,52.1,51.8,52.1 c28.6,0,51.8-23.4,51.8-52.1c0-3.7-0.4-7.3-1.1-10.8h147.2c-0.7,3.5-1.1,7.1-1.1,10.8c0,28.7,23.3,52.1,51.8,52.1 s51.8-23.4,51.8-52.1c0-3.7-0.4-7.3-1.1-10.8H502c5.5,0,10-4.5,10-10v-61.5C512,344.8,507.5,340.4,502,340.4L502,340.4z M396.2,196 h52.2l28.8,76.1h-81V196z M396.2,292.1h85.5v48.2h-85.5V292.1z M167.1,464.7c-17.6,0-31.8-14.4-31.8-32.1 c0-17.7,14.3-32.1,31.8-32.1s31.8,14.4,31.8,32.1S184.7,464.7,167.1,464.7z M415.8,464.7c-17.6,0-31.8-14.4-31.8-32.1 c0-17.7,14.3-32.1,31.8-32.1s31.8,14.4,31.8,32.1S433.4,464.7,415.8,464.7z M492,401.9h-34.2c0,0-0.1,0-0.1,0 c-9.4-12.9-24.7-21.3-41.8-21.3c-17.1,0-32.4,8.4-41.8,21.3H209.1c0,0-0.1,0-0.1,0c-9.4-12.9-24.7-21.3-41.8-21.3 s-32.4,8.4-41.8,21.3H80v-41.5h412V401.9z" style="fill: rgb(255, 187, 0);"/>
  </g>
  <ellipse class="st1" cx="107.2" cy="134.9" rx="107.2" ry="107.6" style="fill: rgb(215, 106, 3);"/>
  <path class="st0" d="M125.9,149.6h-18.7c-5.5,0-10-4.5-10-10v-31.2c0-5.5,4.5-10,10-10s10,4.5,10,10v21.2h8.7c5.5,0,10,4.5,10,10 C135.9,145.1,131.4,149.6,125.9,149.6z" style="fill: rgb(254, 184, 43);"/>
</svg>