<?xml version="1.0" encoding="utf-8"?>
<svg viewBox="0 0 512 512" style="enable-background:new 0 0 512 512;" xmlns="http://www.w3.org/2000/svg">
  <defs>
    <style type="text/css">
	.st0{fill:#2BFEC5;}
	.st1{fill:#9140A1;}
</style>
  </defs>
  <g>
    <path class="st0" d="M353.4,344.2c-3.4,0-6.7-0.1-10-0.4v68.4H66.2V84.5h277.2v55.3c3.3-0.3,6.6-0.4,10-0.4s6.7,0.1,10,0.4V48.1 c0-26.5-21.7-48.1-48.3-48.1H94.5C67.9,0,46.2,21.6,46.2,48.1v415.7c0,26.6,21.6,48.2,48.2,48.2h220.8c26.6,0,48.2-21.6,48.2-48.2 v-120C360.1,344.1,356.8,344.2,353.4,344.2L353.4,344.2z M66.2,48.1C66.2,32.6,78.9,20,94.5,20h220.6c15.6,0,28.3,12.6,28.3,28.1 v16.4H66.2V48.1z M343.4,463.8c0,15.5-12.6,28.2-28.2,28.2H94.4c-15.5,0-28.2-12.6-28.2-28.2v-31.6h277.2V463.8z" style="fill: rgb(255, 187, 0);"/>
    <path class="st0" d="M198.1,472.1h13.3c5.5,0,10-4.5,10-10c0-5.5-4.5-10-10-10h-13.3c-5.5,0-10,4.5-10,10 C188.1,467.6,192.6,472.1,198.1,472.1L198.1,472.1z" style="fill: rgb(255, 187, 0);"/>
  </g>
  <path class="st1" d="M353.4,129.5c-62.1,0-112.4,50.3-112.4,112.4c0,24.6,7.9,47.4,21.4,66l-21.4,43l62.1-8.4 c15.1,7.6,32.2,11.8,50.3,11.8c62.1,0,112.4-50.3,112.4-112.4S415.5,129.5,353.4,129.5L353.4,129.5z" style="fill: rgb(215, 106, 3);"/>
  <path class="st0" d="M364.1,270.9h-0.7V234h0.7c5.5,0,10-4.5,10-10s-4.5-10-10-10h-21.4c-5.5,0-10,4.5-10,10s4.5,10,10,10h0.7v36.9 h-0.7c-5.5,0-10,4.5-10,10s4.5,10,10,10h21.4c5.5,0,10-4.5,10-10S369.7,270.9,364.1,270.9z M353.4,177.5c5.5,0,10,4.5,10,10 s-4.5,10-10,10s-10-4.5-10-10S347.9,177.5,353.4,177.5z" style="fill: rgb(255, 187, 0);"/>
</svg>