<?xml version="1.0" encoding="utf-8"?>
<svg viewBox="0 0 512 512" style="enable-background:new 0 0 512 512;" xmlns="http://www.w3.org/2000/svg">
  <defs>
    <style type="text/css">
	.st0{fill:#2BFEC5;}
	.st1{fill:#9140A1;}
</style>
  </defs>
  <g>
    <path class="st0" d="M477.6,255.7l-37.3-62c0,0-1-1.4-1-1.4c-1.1-1.3-2.6-2.3-4.4-2.9l-131.1-44.3l-14.9,2.8l2.3,14l0.1,0 l109.2,36.9L256,247.6l-144.5-48.8l109-36.8c0.1,0,0.2-0.1,0.4-0.1l2-13.4l-14.6-3.4C181.9,153.9,77,189.3,77,189.3 c0,0-0.8,0.3-0.8,0.3c-1.7,0.8-3.2,2-4.2,3.4c0,0-0.3,0.5-0.4,0.6l-37.3,62c-1,1.7-1.6,3.7-1.6,5.7c0.2,4.2,2.8,7.6,6.5,9 l30.9,11.7v160.5c0,4.3,2.7,8.1,6.8,9.5l175.8,59.4c0,0,0,0,0,0c2.1,0.7,4.3,0.7,6.4,0c0,0,0,0,0,0L435,452.2 c4.1-1.4,6.8-5.2,6.8-9.5V282.1l30.9-11.7c3.7-1.4,6.3-4.9,6.5-9C479.2,259.4,478.6,257.4,477.6,255.7L477.6,255.7z M57.6,256 l27.1-45.1l153.7,51.9L197,308.7L57.6,256z M246,488.1L90.2,435.5V289.7l106.1,40.1c1.2,0.4,2.3,0.6,3.5,0.6c2.8,0,5.5-1.2,7.4-3.3 l38.7-42.9L246,488.1z M421.8,435.5L266,488.1V284.2l38.7,42.9c1.9,2.1,4.7,3.3,7.4,3.3c1.2,0,2.4-0.2,3.5-0.6l106.1-40.1 L421.8,435.5z M315,308.7l-41.4-45.9l153.7-51.9l27.1,45.1L315,308.7z" style="fill: rgb(255, 187, 0);"/>
  </g>
  <g>
    <path class="st1" d="M164.5,87L256,208.6L347.5,87h-51V0h-81.1v87H164.5z" style="fill: rgb(215, 106, 3);"/>
  </g>
</svg>