<?xml version="1.0" encoding="utf-8"?>
<svg viewBox="0 0 512 512" style="enable-background:new 0 0 512 512;" xmlns="http://www.w3.org/2000/svg">
  <defs>
    <style type="text/css">
	.st0{fill:#2BFEC5;}
	.st1{fill:#9140A1;}
</style>
  </defs>
  <g>
    <path class="st0" d="M320.2,473.8H91.5V133h53.6v51.5c0,5.5,4.5,10,10,10c5.5,0,10-4.5,10-10V133h137.1v51.5c0,5.5,4.5,10,10,10 s10-4.5,10-10V133h51.9v106h20V123c0-5.5-4.5-10-10-10h-61.9V88.1c0-48.6-39.7-88.1-88.6-88.1c-11.2,0-21.9,2.1-31.8,5.9 C192,2.1,181.3,0,170.1,0c-48.8,0-88.6,39.5-88.6,88.1V113H19.6c-5.5,0-10,4.5-10,10v323.2c0,26.2,21.4,47.6,47.6,47.6h293.1 C340.5,488.4,330,481.8,320.2,473.8L320.2,473.8z M233.6,20c37.8,0,68.6,30.6,68.6,68.1V113h-43.6V88.1c0-27.2-12.5-51.6-32-67.8 C228.9,20.1,231.3,20,233.6,20L233.6,20z M201.9,27.8c21.9,11.4,36.8,34.2,36.8,60.4V113h-73.6V88.1 C165.1,61.9,180,39.2,201.9,27.8z M101.5,88.1c0-37.6,30.8-68.1,68.6-68.1c2.4,0,4.7,0.1,7,0.4c-19.6,16.2-32,40.6-32,67.8V113 h-43.6L101.5,88.1L101.5,88.1z M71.5,473.8H57.3c-15.2,0-27.6-12.4-27.6-27.6V133h41.9V473.8z" style="fill: rgb(255, 187, 0);"/>
  </g>
  <path class="st1" d="M470.8,272.1c-30.2,0-56.3-17.6-68.4-43.1h-35.6c-12.1,25.5-38.2,43.1-68.4,43.1c-11.3,0-21.9-2.4-31.5-6.8 v124.6c0,91.1,117.8,122.2,117.8,122.2s117.8-31.1,117.8-122.2V265.3C492.8,269.6,482.1,272.1,470.8,272.1L470.8,272.1z" style="fill: rgb(215, 106, 3);"/>
  <path class="st0" d="M380.8,405.6c-2.6,0-5.2-1-7-2.9L352,381.1c-3.9-3.9-3.9-10.2,0-14.1c3.9-3.9,10.2-3.9,14.1,0l14,14l36.5-43.2 c3.6-4.2,9.9-4.8,14.1-1.2c4.2,3.6,4.8,9.9,1.2,14.1l-43.5,51.5c-1.8,2.1-4.4,3.4-7.2,3.5C381,405.6,380.9,405.6,380.8,405.6 L380.8,405.6z" style="fill: rgb(255, 187, 0);"/>
</svg>