<?xml version="1.0" encoding="utf-8"?>
<svg viewBox="0 0 512 512" style="enable-background:new 0 0 512 512;" xmlns="http://www.w3.org/2000/svg">
  <defs>
    <style type="text/css">
	.st0{fill:#9140A1;}
	.st1{fill:#2BFEC5;}
</style>
  </defs>
  <g>
    <path class="st0" d="M292.3,2.5c-66.4,0-126,29.4-166.2,76c5.6,2.8,10.9,6.6,15.6,11.3l28.3,28.4c29.4-34.6,73.3-56.5,122.3-56.5 c88.6,0,160.5,71.8,160.5,160.3c0,49.2-22.1,93.1-57,122.6l22.8,22.8c6.8,6.8,11.6,14.7,14.5,23.2c48.3-40.3,79-100.9,79-168.6 C512,100.8,413.6,2.5,292.3,2.5L292.3,2.5z" style="fill: rgb(215, 106, 3);"/>
  </g>
  <g>
    <path class="st1" d="M425.6,360.4l-32.7-32.8c-12.9-13-30.1-20.1-48.3-20.1s-35.4,7.1-48.3,20.1l-29.5,29.6L151.8,242.1l29.5-29.6 c26.6-26.7,26.6-70.2,0-96.9l-32.7-32.8C135.4,69.4,117.6,62,98.8,62s-36.6,7.4-50,20.8c-0.3,0.3-0.5,0.6-0.8,0.9L32,104 c-15.3,19.4-25.6,42.4-29.8,66.6c-4.3,24.4-2.3,49.6,5.7,72.8c5.8,16.8,13.1,29.7,21.7,38.3l197.8,198.3 c6.8,6.8,16.4,12.9,28.5,18.1c18,7.7,37.1,11.5,56.2,11.5c31.8,0,63.5-10.4,89.8-30.6l22.8-17.5c0.3-0.3,0.7-0.6,1-0.9 C453.1,432.9,453.1,388,425.6,360.4L425.6,360.4z M411.9,445.9L389.7,463c-36.4,27.9-84.6,34.3-126,16.7 c-9.7-4.1-17.1-8.8-22.2-13.8L43.8,267.6c-6.5-6.5-12.2-16.8-17-30.7c-14.1-40.9-6.3-85.9,20.9-120.5l15.6-19.8 C72.9,87.2,85.4,82,98.8,82c13.5,0,26.2,5.3,35.8,14.9l32.7,32.8c18.9,18.9,18.9,49.7,0,68.6L130.6,235c-3.9,3.9-3.9,10.2,0,14.1 l129,129.3c1.9,1.9,4.4,2.9,7.1,2.9c2.7,0,5.2-1.1,7.1-2.9l36.6-36.7c9.1-9.2,21.3-14.2,34.2-14.2c12.9,0,25,5,34.2,14.2l32.7,32.8 C431.1,394.2,431.2,426.1,411.9,445.9L411.9,445.9z" style="fill: rgb(255, 187, 0);"/>
    <g>
      <path class="st1" d="M361,221.7h-1.1c0.1-21,0.2-43.5-0.1-46.7c-0.6-7.1-4.8-12.8-10.8-14.7c-5.9-1.8-12.2,0.5-16.8,6.2 c-5,6.1-28,47.7-34.9,60.3c-1.7,3.1-1.6,6.9,0.2,9.9c1.8,3,5.1,4.9,8.6,4.9h33.7c0,5.6-0.1,11-0.1,15.8c0,5.5,4.4,10,9.9,10.1 c0,0,0.1,0,0.1,0c5.5,0,10-4.4,10-9.9c0-3,0.1-8.8,0.1-16h1.3c5.5,0,10-4.5,10-10C371,226.2,366.5,221.7,361,221.7z M339.9,221.7 H323c6.3-11.2,12.3-22,17-29.9C340,200,340,210.6,339.9,221.7L339.9,221.7z" style="fill: rgb(255, 187, 0);"/>
      <path class="st1" d="M282.5,250.4c-8.8,0.1-18.1,0.2-25.9,0.2c4.9-6.5,11.6-15.8,20.8-28.9c5.6-8,9.2-15.6,10.8-22.5 c0.4-1.6,0.7-4.6,0.7-5.6c0-17.9-14.5-32.5-32.4-32.5c-15.4,0-28.8,11-31.8,26.2c-1.1,5.4,2.5,10.7,7.9,11.7 c5.4,1.1,10.7-2.5,11.7-7.9c1.1-5.8,6.2-10,12.2-10c6.6,0,12.1,5.3,12.4,11.9l-0.3,2.1c-1.1,4.3-3.7,9.4-7.7,15.2 c-13.9,19.9-22.1,30.8-26.6,36.6c-5.5,7.2-8,10.5-6.3,16c1,3.2,3.5,5.7,6.7,6.8c1.3,0.4,2.6,0.9,19.6,0.9c6.7,0,15.8-0.1,28.3-0.2 c5.5-0.1,9.9-4.6,9.9-10.1C292.5,254.8,288,250.4,282.5,250.4L282.5,250.4z" style="fill: rgb(255, 187, 0);"/>
    </g>
  </g>
</svg>