<?xml version="1.0" encoding="utf-8"?>
<svg viewBox="0 0 512 512" style="enable-background:new 0 0 512 512;" xmlns="http://www.w3.org/2000/svg">
  <defs>
    <style type="text/css">
	.st0{fill:#2BFEC5;}
	.st1{fill:#9140A1;}
</style>
  </defs>
  <g>
    <path class="st0" d="M469.9,159.7c1.9-1.9,2.9-4.4,2.9-7.1s-1.1-5.2-2.9-7.1l-53.3-53.2c-3.9-3.9-10.2-3.9-14.1,0l-27.4,27.3 c-24.5-16.4-52-27.4-81-32.6c8.6-9.3,13.8-21.6,13.8-35.2C307.9,23.3,284.6,0,256,0s-51.9,23.3-51.9,51.9c0,13.6,5.3,26,13.8,35.2 c-29,5.2-56.5,16.2-81,32.6l-27.4-27.3c-3.9-3.9-10.2-3.9-14.1,0l-53.3,53.2c-1.9,1.9-2.9,4.4-2.9,7.1s1.1,5.2,2.9,7.1l29.2,29.1 c-19.4,32.7-29.8,70.1-29.8,109.1c0,57.2,22.3,111,62.8,151.4C144.8,489.7,198.7,512,256,512s111.2-22.3,151.7-62.7 c40.5-40.4,62.8-94.2,62.8-151.4c0-39-10.4-76.4-29.8-109.1L469.9,159.7z M409.5,113.6l39.1,39l-19.2,19.2 c-6.5-8.9-13.8-17.4-21.8-25.3c-5.2-5.2-10.7-10.1-16.3-14.7L409.5,113.6z M256,20c17.6,0,31.9,14.3,31.9,31.9 c0,14.1-9.2,26.1-21.9,30.3V59c0-5.5-4.5-10-10-10s-10,4.5-10,10v23.1c-12.7-4.2-21.9-16.2-21.9-30.3C224.1,34.3,238.4,20,256,20 L256,20z M63.3,152.6l39.1-39l18.2,18.2c-5.6,4.6-11.1,9.5-16.3,14.7c-8,8-15.2,16.4-21.8,25.3L63.3,152.6z M256,492 c-107.3,0-194.5-87.1-194.5-194.1S148.7,103.7,256,103.7s194.5,87.1,194.5,194.1S363.2,492,256,492L256,492z" style="fill: rgb(255, 187, 0);"/>
  </g>
  <ellipse class="st1" cx="256" cy="297.9" rx="153" ry="152.7" style="fill: rgb(215, 106, 3);"/>
  <path class="st0" d="M256,195.8c-5.5,0-10-4.5-10-10v-3.4c0-5.5,4.5-10,10-10c5.5,0,10,4.5,10,10v3.4 C266,191.3,261.5,195.8,256,195.8z M256,423.3c-5.5,0-10-4.5-10-10v-3.4c0-5.5,4.5-10,10-10c5.5,0,10,4.5,10,10v3.4 C266,418.8,261.5,423.3,256,423.3z M371.4,307.9H368c-5.5,0-10-4.5-10-10s4.5-10,10-10h3.4c5.5,0,10,4.5,10,10 C381.4,303.4,377,307.9,371.4,307.9z M144,307.9h-3.4c-5.5,0-10-4.5-10-10s4.5-10,10-10h3.4c5.5,0,10,4.5,10,10 C154,303.4,149.5,307.9,144,307.9z M335.2,228.6c-2.6,0-5.1-1-7.1-2.9c-3.9-3.9-3.9-10.2,0-14.1l2.4-2.4c3.9-3.9,10.2-3.9,14.1,0 c3.9,3.9,3.9,10.2,0,14.1l-2.4,2.4C340.3,227.7,337.8,228.6,335.2,228.6z M174.4,389.5c-2.6,0-5.1-1-7.1-2.9 c-3.9-3.9-3.9-10.2,0-14.1l2.4-2.4c3.9-3.9,10.2-3.9,14.1,0c3.9,3.9,3.9,10.2,0,14.1l-2.4,2.4C179.5,388.5,176.9,389.5,174.4,389.5z M337.6,389.5c-2.6,0-5.1-1-7.1-2.9l-2.4-2.4c-3.9-3.9-3.9-10.2,0-14.1c3.9-3.9,10.2-3.9,14.1,0l2.4,2.4c3.9,3.9,3.9,10.2,0,14.1 C342.8,388.5,340.2,389.5,337.6,389.5z M176.8,228.6c-2.6,0-5.1-1-7.1-2.9l-2.4-2.4c-3.9-3.9-3.9-10.2,0-14.1 c3.9-3.9,10.2-3.9,14.1,0l2.4,2.4c3.9,3.9,3.9,10.2,0,14.1C181.9,227.7,179.3,228.6,176.8,228.6z M315.8,286.4h-25.3 c-3.3-11-12-19.7-23-23V232c0-5.5-4.5-10-10-10s-10,4.5-10,10v31.3c-14.2,4.3-24.5,17.5-24.5,33c0,19,15.5,34.5,34.5,34.5 c15.6,0,28.7-10.3,33-24.5h25.3c5.5,0,10-4.5,10-10S321.3,286.4,315.8,286.4L315.8,286.4z M257.5,310.9c-8,0-14.5-6.5-14.5-14.5 s6.5-14.5,14.5-14.5c8,0,14.5,6.5,14.5,14.5C272,304.4,265.5,310.9,257.5,310.9z" style="fill: rgb(255, 187, 0);"/>
</svg>