<?xml version="1.0" encoding="utf-8"?>
<svg viewBox="0 0 512 512" style="enable-background:new 0 0 512 512;" xmlns="http://www.w3.org/2000/svg">
  <defs>
    <style type="text/css">
	.st0{fill:#2BFEC5;}
	.st1{fill:#9140A1;}
</style>
  </defs>
  <g>
    <path class="st0" d="M475.3,28.5H36.7C16.5,28.5,0,45,0,65.3v387.8c0,16.8,13.6,30.4,30.3,30.4h451.4c16.7,0,30.3-13.7,30.3-30.4 V65.3C512,45,495.5,28.5,475.3,28.5L475.3,28.5z M20,65.3c0-9.3,7.5-16.8,16.7-16.8h438.6c9.2,0,16.7,7.5,16.7,16.8v59.4H20V65.3z M492,453.1c0,5.8-4.6,10.4-10.3,10.4H30.3c-5.7,0-10.3-4.7-10.3-10.4V144.7h472V453.1z" style="fill: rgb(255, 187, 0);"/>
    <path class="st0" d="M329,76.6h-13.4c-5.5,0-10,4.5-10,10s4.5,10,10,10H329c5.5,0,10-4.5,10-10C339,81.1,334.5,76.6,329,76.6z" style="fill: rgb(255, 187, 0);"/>
    <path class="st0" d="M391.1,76.6h-13.4c-5.5,0-10,4.5-10,10s4.5,10,10,10h13.4c5.5,0,10-4.5,10-10 C401.1,81.1,396.6,76.6,391.1,76.6z" style="fill: rgb(255, 187, 0);"/>
    <path class="st0" d="M453.2,76.6h-13.4c-5.5,0-10,4.5-10,10s4.5,10,10,10h13.4c5.5,0,10-4.5,10-10 C463.2,81.1,458.8,76.6,453.2,76.6z" style="fill: rgb(255, 187, 0);"/>
    <path class="st0" d="M168.2,76.6H71.3c-5.5,0-10,4.5-10,10s4.5,10,10,10h96.9c5.5,0,10-4.5,10-10C178.2,81.1,173.7,76.6,168.2,76.6 z" style="fill: rgb(255, 187, 0);"/>
  </g>
  <circle class="st1" cx="256" cy="305" r="128.4" style="fill: rgb(215, 106, 3);"/>
  <path class="st0" d="M296,304.2c7.2-8.9,11.5-20.2,11.5-32.4c0-28.4-23.1-51.5-51.5-51.5s-51.5,23.1-51.5,51.5 c0,12.3,4.3,23.6,11.5,32.4c-14.1,7.6-23.6,22.6-23.6,39.5V378c0,5.5,4.5,10,10,10h107.2c5.5,0,10-4.5,10-10v-34.3 C319.6,326.8,310.1,311.9,296,304.2L296,304.2z M256,240.2c17.4,0,31.5,14.1,31.5,31.5c0,17.4-14.1,31.5-31.5,31.5 s-31.5-14.1-31.5-31.5C224.5,254.4,238.6,240.2,256,240.2L256,240.2z M299.6,368h-87.2v-24.3c0-12.9,10-23.7,22.8-24.8 c6.4,2.8,13.4,4.4,20.8,4.4c7.4,0,14.4-1.6,20.8-4.4c12.8,1.1,22.8,11.9,22.8,24.8L299.6,368L299.6,368z" style="fill: rgb(255, 187, 0);"/>
</svg>